<?xml version="1.0" encoding="UTF-8" standalone="no"?>
<!-- Created with Inkscape (http://www.inkscape.org/) -->

<svg
   xmlns:dc="http://purl.org/dc/elements/1.1/"
   xmlns:cc="http://creativecommons.org/ns#"
   xmlns:rdf="http://www.w3.org/1999/02/22-rdf-syntax-ns#"
   xmlns:svg="http://www.w3.org/2000/svg"
   xmlns="http://www.w3.org/2000/svg"
   xmlns:sodipodi="http://sodipodi.sourceforge.net/DTD/sodipodi-0.dtd"
   xmlns:inkscape="http://www.inkscape.org/namespaces/inkscape"
   version="1.1"
   id="svg2"
   xml:space="preserve"
   width="816"
   height="1056"
   viewBox="0 0 816 1056"
   sodipodi:docname="template.svg"
   inkscape:version="0.92.3 (2405546, 2018-03-11)"><metadata
     id="metadata8"><rdf:RDF><cc:Work
         rdf:about=""><dc:format>image/svg+xml</dc:format><dc:type
           rdf:resource="http://purl.org/dc/dcmitype/StillImage" /><dc:title></dc:title></cc:Work></rdf:RDF></metadata><defs
     id="defs6" /><sodipodi:namedview
     pagecolor="#ffffff"
     bordercolor="#666666"
     borderopacity="1"
     objecttolerance="10"
     gridtolerance="10"
     guidetolerance="10"
     inkscape:pageopacity="0"
     inkscape:pageshadow="2"
     inkscape:window-width="1920"
     inkscape:window-height="1025"
     id="namedview4"
     showgrid="false"
     inkscape:zoom="0.89393939"
     inkscape:cx="363.97723"
     inkscape:cy="571.26533"
     inkscape:window-x="0"
     inkscape:window-y="27"
     inkscape:window-maximized="1"
     inkscape:current-layer="g10" /><g
     id="g10"
     inkscape:groupmode="layer"
     inkscape:label="tellthestory_2018f_RD1AWF"
     transform="matrix(1.3333333,0,0,-1.3333333,0,1056)"><text
       transform="matrix(1,0,0,-1,214.7656,669.8403)"
       style="font-variant:normal;font-weight:bold;font-stretch:normal;font-size:55px;font-family:DINOT-Bold;-inkscape-font-specification:DINOT-Bold;writing-mode:lr-tb;fill:#231f20;fill-opacity:1;fill-rule:nonzero;stroke:none"
       id="text14"><tspan
         x="0 35.419998 67.870003 100.32 117.095 151.19501"
         y="0"
         sodipodi:role="line"
         id="tspan12">OFFICE</tspan></text>
<text
       transform="matrix(1,0,0,-1,260.9756,640.8403)"
       style="font-variant:normal;font-weight:bold;font-stretch:normal;font-size:14px;font-family:DINOT-Bold;-inkscape-font-specification:DINOT-Bold;writing-mode:lr-tb;fill:#231f20;fill-opacity:1;fill-rule:nonzero;stroke:none"
       id="text20"><tspan
         x="0 6.902 10.752 17.766001 21.615999 26.474001 34.076 38.863998 43.652 47.501999 54.012001 61.683998 65.674004 72.183998 79.786003"
         y="0"
         sodipodi:role="line"
         id="tspan16">visitoffice.com</tspan><tspan
         x="-145.88 -138.278 -135.03 -126.028 -116.676 -108.206 -99.931999 -91.938004 -87.667999 -78.652 -68.697998 -60.424 -57.175999 -49.462002 -40.445999 -37.198002 -27.608 -19.138 -11.088 -2.296 0.95200002 10.178 18.648001 27.327999 31.598 40.824001 49.293999 52.542 64.959999 74.550003 82.501999 90.496002 93.744003 102.536 111.552 120.078 127.232 135.702 144.242 152.23599 160.50999 163.758 171.472 180.48801 183.73599 192.5294 201.0694 209.7494 218.21941 226.94141 233.9554"
         y="109.802"
         sodipodi:role="line"
         id="tspan18">4 QUESTIONS TO HELP DECIDE WHAT PROJECTS TO ACCEPT.</tspan></text>
<text
       transform="matrix(1,0,0,-1,100.3271,430.2319)"
       style="font-variant:normal;font-weight:bold;font-stretch:normal;font-size:35px;font-family:DINOT-Bold;-inkscape-font-specification:DINOT-Bold;letter-spacing:0.75px;writing-mode:lr-tb;fill:#231f20;fill-opacity:1;fill-rule:nonzero;stroke:none"
       id="text34"><tspan
         x="0 22.33 45.220001 66.394997 74.514999 94.5 118.475 139.64999 159.67 167.78999 190.155 212.345 234.88499 257.95001 266.07001 288.04999 309.22501 331.76501 353.745 373.87 395.04501"
         y="0"
         sodipodi:role="line"
         id="tspan22"
         style="letter-spacing:0.75px">ARE THEY GOOD PEOPLE?</tspan><tspan
         x="-8.4350004 14.63 37.169998 58.345001 79.029999 87.150002 97.824997 117.81 125.93 154.315 176.645 199.92 221.095 229.215 249.2 273.17499 294.35001 302.47 333.16849 355.7085 378.59851 398.72351 421.78851"
         y="84"
         sodipodi:role="line"
         id="tspan24"
         style="letter-spacing:0.75px">DOES IT MAKE THE WORLD </tspan><tspan
         x="133.38499 156.41499 177.59 197.575 217.56 238.735 261.625"
         y="126"
         sodipodi:role="line"
         id="tspan26"
         style="letter-spacing:0.75px">BETTER?</tspan><tspan
         x="5.9850001 29.049999 51.59 59.709999 79.695 103.67 124.845 144.86501 152.985 171.92 194.25 213.14999 236.53 257.70499 265.82501 288.89001 310.065 330.75 341.42499 364.14001 389.02499"
         y="210"
         sodipodi:role="line"
         id="tspan28"
         style="letter-spacing:0.75px">DO THEY VALUE DESIGN?</tspan><tspan
         x="69.93 80.605003 101.29 109.41 120.085 140.07001 148.19 169.89 192.78 213.955 233.83501 253.82001 264.495 284.82999 306.005 323.32999 343.35001"
         y="294"
         sodipodi:role="line"
         id="tspan30"
         style="letter-spacing:0.75px">IS IT CREATIVELY </tspan><tspan
         x="-35.735001 -25.059999 -0.175 19.809999 40.985001 63.875 85.050003 105.735 125.72 136.395 161.28 183.995 192.11501 212.065 234.605 257.495 265.61499 285.60001 309.57501 330.75 338.87 358.85501 380.03 402.35999 430.745"
         y="336"
         sodipodi:role="line"
         id="tspan32"
         style="letter-spacing:0.75px">INTERESTING FOR THE TEAM?</tspan></text>
<g
       id="g36"
       transform="translate(49,592)"><path
         d="M 0,0 H 511"
         style="fill:none;stroke:#231f20;stroke-width:1;stroke-linecap:butt;stroke-linejoin:miter;stroke-miterlimit:10;stroke-dasharray:none;stroke-opacity:1"
         id="path38"
         inkscape:connector-curvature="0" /></g><flowRoot
       xml:space="preserve"
       id="flowRoot845"
       style="font-style:normal;font-weight:normal;font-size:133.33332825px;line-height:1.25;font-family:sans-serif;letter-spacing:0px;word-spacing:0px;fill:#000000;fill-opacity:1;stroke:none"
       transform="matrix(0.75000002,0,0,-0.75000002,0,792.00002)"><flowRegion
         id="flowRegion847"><rect
           id="rect849"
           width="225.96609"
           height="187.93221"
           x="705.86438"
           y="269.59323" /></flowRegion><flowPara
         id="flowPara851">asdf</flowPara></flowRoot><flowRoot
       xml:space="preserve"
       id="flowRoot853"
       style="font-style:normal;font-weight:normal;font-size:133.33332825px;line-height:1.25;font-family:sans-serif;letter-spacing:0px;word-spacing:0px;fill:#000000;fill-opacity:1;stroke:none"
       transform="matrix(0.75000002,0,0,-0.75000002,0,792.00002)"><flowRegion
         id="flowRegion855"><rect
           id="rect857"
           width="266.82489"
           height="256.85873"
           x="746.66663"
           y="266.66669" /></flowRegion><flowPara
         id="flowPara859">asdf</flowPara></flowRoot><flowRoot
       xml:space="preserve"
       id="flowRoot861"
       style="fill:black;fill-opacity:1;stroke:none;font-family:DINOT-Bold;font-style:normal;font-weight:normal;font-size:46.66666667px;line-height:1.25;letter-spacing:0px;word-spacing:0px;text-anchor:middle;text-align:center;-inkscape-font-specification:DINOT-Bold;font-stretch:normal;font-variant:normal;"><flowRegion
         id="flowRegion863"
         style="font-size:46.66666667px;text-anchor:middle;text-align:center;-inkscape-font-specification:DINOT-Bold;font-family:DINOT-Bold;font-weight:normal;font-style:normal;font-stretch:normal;font-variant:normal;"><rect
           id="rect865"
           width="642.10168"
           height="517.93219"
           x="91.728813"
           y="439.62711"
           style="font-size:46.66666667px;text-anchor:middle;text-align:center;-inkscape-font-specification:DINOT-Bold;font-family:DINOT-Bold;font-weight:normal;font-style:normal;font-stretch:normal;font-variant:normal;" /></flowRegion><flowPara
         id="flowPara867"></flowPara></flowRoot></g></svg>